<svg width="67" height="26" viewBox="0 0 67 26" fill="none" xmlns="http://www.w3.org/2000/svg">
<path d="M53.0638 19.2862C51.7174 17.3949 48.7058 17.3374 47.3169 19.1988C46.476 20.3262 46.2799 21.6123 46.5492 22.956C46.8633 24.5205 47.7751 25.5743 49.4167 25.9517C49.4522 25.9609 49.4852 25.9816 49.5183 25.9977H50.8788C50.9851 25.9609 51.0891 25.9217 51.1977 25.8895C51.8567 25.6963 52.4236 25.3649 52.8583 24.8404C54.181 23.2482 54.2637 20.975 53.0638 19.2862ZM52.1638 24.2744C51.7906 25.0658 51.1269 25.5168 50.2269 25.5398C49.3293 25.5605 48.6585 25.1441 48.2121 24.3848C47.8365 23.7429 47.6499 22.9445 47.6475 21.8493C47.6712 21.1614 47.7491 20.3975 48.1034 19.6842C48.5286 18.8329 49.2065 18.3199 50.1938 18.3337C51.1717 18.3475 51.878 18.8674 52.2299 19.721C52.8464 21.2327 52.8724 22.7719 52.1638 24.2744Z" fill="#B0B7BE"/>
<path d="M42.4912 25.9977C42.0802 25.8643 41.6597 25.7699 41.2558 25.6112C40.6819 25.3834 40.3819 24.99 40.3583 24.3941C40.3464 24.1088 40.3488 23.8234 40.3488 23.5381C40.3488 23.4415 40.3701 23.3426 40.4882 23.3288C40.611 23.315 40.6441 23.4185 40.6653 23.5082C40.7622 23.9339 40.9015 24.3411 41.1755 24.6932C41.7495 25.4317 43.0723 25.7078 43.9013 25.2615C44.5438 24.9163 44.7233 24.2008 44.3123 23.6095C44.0785 23.2736 43.7455 23.0458 43.4006 22.8387C42.725 22.4338 42.0448 22.038 41.3716 21.6285C40.8732 21.3225 40.5212 20.8991 40.396 20.3285C40.1268 19.0953 40.9181 18.0599 42.2668 17.9058C43.0321 17.8183 43.7714 17.9288 44.473 18.2647C45.0611 18.5454 45.3517 18.9917 45.3162 19.636C45.3044 19.8568 45.3162 20.0777 45.3068 20.2986C45.3044 20.3952 45.3139 20.5195 45.1651 20.5264C45.0446 20.5333 45.0139 20.4344 44.9879 20.3446C44.9288 20.1421 44.8863 19.9328 44.8107 19.7349C44.4068 18.6696 43.2329 18.122 42.17 18.4948C41.2865 18.8054 41.0692 19.7142 41.7164 20.3745C41.9408 20.6046 42.2077 20.7749 42.4841 20.9359C43.1644 21.334 43.8423 21.7343 44.5226 22.1324C45.3186 22.5994 45.7249 23.2667 45.5855 24.1847C45.4461 25.1004 44.8509 25.671 43.8659 25.9011C43.7289 25.9333 43.5825 25.9218 43.4573 26H42.4936L42.4912 25.9977Z" fill="#B0B7BE"/>
<path d="M63.9151 25.9977C63.9127 25.9815 63.908 25.9654 63.9056 25.9516C64.13 25.7515 64.6591 25.7515 64.8859 25.9516C64.8835 25.9677 64.8812 25.9838 64.8788 26H63.9151V25.9977Z" fill="#B0B7BE"/>
<path d="M29.7691 21.1131C29.618 20.3262 29.3227 19.6107 28.6637 19.0884C27.9858 18.5523 27.2016 18.244 26.337 18.1634C24.9812 18.0392 23.6207 18.1151 22.2625 18.099C22.1609 18.099 22.031 18.0921 22.0381 18.2394C22.0475 18.382 22.1775 18.3636 22.279 18.3728C22.7562 18.4188 22.9475 18.5845 23.0302 19.0447C23.0538 19.1804 23.0538 19.3208 23.0538 19.4565C23.0538 20.4044 23.0538 21.3501 23.0538 22.298C23.0538 23.3357 23.0561 24.3756 23.0538 25.4133C23.0538 25.6204 23.0987 25.7837 23.3585 25.7791C24.3765 25.763 25.3969 25.8436 26.4126 25.7124C27.4496 25.579 28.359 25.2039 29.018 24.371C29.7857 23.3978 29.9912 22.3026 29.7668 21.1131H29.7691ZM28.0047 23.9316C27.3055 25.036 26.2095 25.526 24.8915 25.3121C24.4238 25.2369 24.1899 24.9624 24.1899 24.4884V21.9529H24.1876V19.1413C24.1876 18.7663 24.275 18.6466 24.6623 18.5822C26.8945 18.2072 28.3259 19.5877 28.4865 21.4582C28.5574 22.321 28.4865 23.1654 28.0047 23.9316Z" fill="#B0B7BE"/>
<path d="M6.71771 23.2275C6.61142 22.5649 6.17207 22.183 5.5414 21.9782C5.37606 21.9253 5.19654 21.8999 5.02175 21.7849C5.22252 21.6699 5.4044 21.5755 5.57211 21.4651C6.51221 20.8416 6.60669 19.537 5.77052 18.7869C5.39495 18.451 4.9438 18.2877 4.44777 18.2117C3.50294 18.0622 2.54867 18.0622 1.59675 18.076C1.13379 18.0829 0.670826 18.099 0.210224 18.1128C0.120465 18.1151 0 18.0944 0 18.2325C0 18.3705 0.122827 18.3452 0.210224 18.359C0.257465 18.3659 0.304706 18.3682 0.351947 18.3728C0.736964 18.4211 0.918843 18.5868 1.00151 18.9572C1.04639 19.1643 1.0582 19.376 1.0582 19.5876C1.0582 21.518 1.0582 23.4484 1.0582 25.3788C1.0582 25.7101 1.1267 25.7998 1.39834 25.7975C2.26522 25.7906 3.13446 25.7929 4.00134 25.763C4.72413 25.7377 5.42802 25.6089 6.03271 25.174C6.72007 24.677 6.83817 23.9868 6.71771 23.2275ZM2.14475 20.1214C2.14475 19.7165 2.14948 19.3115 2.14239 18.9066C2.14239 18.7087 2.22743 18.5937 2.4282 18.5615C3.09666 18.4533 3.74623 18.497 4.35328 18.8192C4.88475 19.0999 5.20126 19.5255 5.18945 20.1283C5.17764 20.738 4.84459 21.1591 4.29423 21.4306C3.90213 21.6216 3.48168 21.6561 3.05179 21.6423C2.85337 21.6377 2.65496 21.6262 2.45891 21.6423C2.21562 21.6607 2.13767 21.5548 2.14239 21.3363C2.14948 20.9313 2.14475 20.5264 2.14475 20.1214ZM5.43511 24.3273C5.2674 24.7392 4.9627 25.006 4.54461 25.1556C3.85253 25.4064 3.14154 25.4018 2.4282 25.2683C2.20144 25.2269 2.13531 25.0705 2.13767 24.8611C2.14239 24.4493 2.14003 24.0351 2.14003 23.6233H2.14475C2.14475 23.1999 2.14475 22.7789 2.14475 22.3555C2.14239 22.1945 2.19672 22.0886 2.38332 22.0886C3.00454 22.084 3.63049 22.0633 4.2399 22.206C5.31464 22.4567 5.82012 23.3656 5.43511 24.3273Z" fill="#CCCCCC"/>
<path d="M14.0873 25.4892C13.5275 25.365 13.1826 24.983 12.8945 24.5367C12.4622 23.8694 12.0394 23.193 11.6071 22.5234C11.4135 22.2266 11.4442 22.1622 11.8079 22.061C12.6016 21.8355 13.1283 21.3408 13.2748 20.5424C13.4188 19.7556 13.1637 19.0883 12.4882 18.6029C12.1032 18.3268 11.6638 18.2094 11.1961 18.1565C9.94189 18.0139 8.68527 18.099 7.43102 18.0898C7.32472 18.0875 7.20662 18.0875 7.20426 18.2278C7.2019 18.3567 7.32236 18.3521 7.40976 18.3682C8.05932 18.4786 8.13019 18.5453 8.22703 19.1827C8.24829 19.3184 8.25301 19.4588 8.25538 19.5945C8.25774 20.5332 8.25538 21.472 8.25538 22.5856C8.22703 23.4116 8.30498 24.4147 8.21758 25.4156C8.19396 25.6595 8.31679 25.8021 8.57898 25.8044C8.69 25.8044 8.80337 25.7998 8.91675 25.7929C9.37027 25.7607 9.38208 25.7262 9.37736 25.2775C9.36791 24.3687 9.38208 23.4576 9.37972 22.5488C9.37972 22.3555 9.46711 22.2635 9.65608 22.2335C9.97496 22.1829 10.1663 22.2635 10.3576 22.5764C10.7214 23.1677 11.0757 23.7659 11.4371 24.3595C11.6733 24.7483 11.9331 25.1188 12.2756 25.4294C12.7858 25.8964 13.3881 25.9701 14.0424 25.8389C14.1464 25.8182 14.2219 25.7722 14.2314 25.6641C14.2385 25.5651 14.1842 25.5122 14.0873 25.4892ZM10.497 21.801C10.2159 21.824 9.9348 21.8056 9.65136 21.7688C9.41279 21.7366 9.33956 21.6169 9.33956 21.3984C9.34665 20.5816 9.34901 19.7625 9.3372 18.9457C9.3372 18.7064 9.4246 18.5845 9.66789 18.5637C9.82851 18.5499 9.98677 18.5338 10.0647 18.5269C11.1513 18.5154 11.9378 19.1067 12.0677 19.9672C12.2047 20.8623 11.4796 21.7159 10.497 21.801Z" fill="#CCCCCC"/>
<path d="M61.1183 25.457C60.7168 25.3649 60.4428 25.1095 60.2042 24.7989C59.7058 24.1501 59.309 23.4368 58.8838 22.742C58.6697 22.3907 58.7531 22.1446 59.1342 22.0034C59.1696 21.9919 59.2051 21.9781 59.2381 21.962C59.968 21.6284 60.3932 21.0946 60.4074 20.287C60.4215 19.438 60.0908 18.7846 59.2759 18.4142C58.8082 18.2002 58.3028 18.1128 57.7902 18.1059C56.7414 18.0967 55.695 18.1036 54.6463 18.1036C54.5801 18.1036 54.514 18.1059 54.4479 18.1151C54.3841 18.122 54.3463 18.1611 54.3439 18.2255C54.3392 18.2899 54.377 18.3313 54.4384 18.3428C54.5211 18.3613 54.6061 18.3705 54.6912 18.3797C54.9935 18.4119 55.1919 18.5706 55.2864 18.8536C55.3478 19.04 55.3643 19.231 55.3643 19.4265C55.362 20.3906 55.362 21.3569 55.362 22.3233H55.3431V25.358C55.3431 25.7123 55.4541 25.8182 55.8179 25.7952C55.8745 25.7929 55.9312 25.786 55.9879 25.7837C56.4792 25.7653 56.491 25.7561 56.4887 25.2706C56.4887 24.3687 56.484 23.4691 56.484 22.5671C56.484 22.268 56.5454 22.222 56.8548 22.2289C57.1879 22.2358 57.3886 22.4268 57.5445 22.6845C58.0335 23.4806 58.4728 24.3066 59.0421 25.0566C59.5499 25.7285 60.2278 25.9976 61.0735 25.8642C61.1939 25.8458 61.3286 25.8159 61.3404 25.664C61.3498 25.5191 61.2294 25.4823 61.1183 25.457ZM56.8123 21.7826C56.5525 21.7503 56.4296 21.6261 56.4391 21.3638C56.4485 20.9589 56.4391 20.5562 56.4391 20.1513V18.9411C56.4391 18.7846 56.4603 18.6419 56.6469 18.5936C57.365 18.4096 58.2154 18.497 58.7988 19.1412C59.231 19.6198 59.3303 20.1697 59.0775 20.7564C58.8082 21.3753 58.3098 21.7204 57.6272 21.7964C57.3556 21.8263 57.0816 21.8148 56.8099 21.7826H56.8123Z" fill="#B0B7BE"/>
<path d="M64.8859 25.9494C64.5599 25.9494 64.2316 25.9494 63.9056 25.9494C63.3387 25.9057 62.812 25.74 62.3348 25.4432C61.9404 25.1993 61.7207 24.8588 61.7514 24.3826C61.7703 24.0996 61.7585 23.812 61.7632 23.5267C61.7632 23.4438 61.7585 23.3472 61.8695 23.3311C61.9805 23.315 62.0065 23.407 62.0325 23.4875C62.1104 23.7245 62.1719 23.9661 62.2663 24.1962C62.7175 25.2661 64.0048 25.7815 65.0961 25.3397C65.9252 25.0038 66.1449 24.2123 65.6063 23.5174C65.3606 23.2022 65.03 22.9929 64.6898 22.7904C64.0308 22.397 63.3387 22.0518 62.7081 21.6124C61.742 20.9382 61.4845 20.0455 61.938 18.9733C62.1341 18.5086 62.4837 18.198 62.9702 18.0553C64.0119 17.7493 65.0252 17.816 65.9819 18.3452C66.5015 18.6328 66.7566 19.0608 66.6574 19.6544C66.6196 19.8776 66.6787 20.0938 66.6716 20.3147C66.6692 20.409 66.6716 20.5103 66.5417 20.5241C66.4188 20.5356 66.3834 20.4413 66.3622 20.3492C66.2984 20.08 66.2157 19.8154 66.1047 19.5623C65.6772 18.5868 64.4064 18.1036 63.4143 18.5385C62.6537 18.8721 62.4766 19.7579 63.0505 20.3446C63.308 20.6069 63.6174 20.8002 63.934 20.9843C64.4938 21.3087 65.0559 21.6308 65.6181 21.9506C65.9724 22.1508 66.27 22.4131 66.5629 22.6938C67.092 23.1999 67.0472 23.8442 66.9102 24.4263C66.6928 25.3489 65.8968 25.8827 64.8811 25.9517L64.8859 25.9494Z" fill="#B0B7BE"/>
<path d="M22.1963 25.4847C21.764 25.388 21.4948 25.1165 21.3129 24.7369C20.6421 23.3357 20.087 21.8862 19.4728 20.4643C19.1681 19.7602 18.8752 19.0516 18.5776 18.3475C18.5209 18.2141 18.4501 18.0991 18.2729 18.1014C18.1076 18.1037 18.0202 18.2049 17.9588 18.3383C17.9375 18.3798 17.921 18.4212 17.9021 18.4649C17.158 20.1744 16.4163 21.8862 15.6723 23.5957C15.3983 24.2215 15.1243 24.8473 14.855 25.4755C14.8196 25.556 14.7558 25.648 14.8385 25.7308C14.9211 25.8183 15.0322 25.7884 15.1314 25.7608C15.3227 25.7078 15.4125 25.556 15.4833 25.3903C15.6935 24.898 15.9132 24.4102 16.114 23.9132C16.2179 23.6624 16.3856 23.5635 16.6573 23.5681C17.4887 23.575 18.3202 23.5773 19.1516 23.5658C19.4374 23.5635 19.6146 23.6578 19.6972 23.9339C19.7917 24.2537 19.9358 24.5551 20.1082 24.8404C20.5027 25.4916 21.0956 25.8045 21.8798 25.8367C21.9648 25.8298 22.0687 25.8252 22.1727 25.8114C22.2672 25.7976 22.3664 25.7746 22.3758 25.6572C22.3876 25.533 22.2931 25.5054 22.1963 25.4847ZM18.9792 23.0849C18.5918 23.0895 18.2044 23.0849 17.8194 23.0849C17.4344 23.0849 17.0635 23.0826 16.688 23.0872C16.5226 23.0895 16.4281 23.0642 16.5179 22.8686C16.9431 21.9184 17.3612 20.9636 17.784 20.0133C17.81 19.9558 17.8241 19.873 17.8997 19.8684C18.0013 19.8592 18.006 19.9581 18.0343 20.0202C18.4241 20.936 18.8162 21.8517 19.2012 22.7697C19.3051 23.0182 19.2579 23.0803 18.9792 23.0849Z" fill="#B0B7BE"/>
<path d="M29.5447 17.9977C30.3903 17.9931 30.9737 18.3981 31.3304 19.1251C31.876 20.2364 32.3461 21.3822 32.8445 22.5142C33.0263 22.9284 33.2035 23.3448 33.3877 23.759C33.4185 23.8303 33.4279 23.9476 33.5247 23.9476C33.6216 23.9476 33.6287 23.8303 33.6617 23.759C34.4129 22.031 35.1593 20.3031 35.9081 18.5775C35.9553 18.4671 36.0002 18.352 36.0687 18.2577C36.1891 18.0921 36.3639 18.0023 36.5576 18.1082C36.7466 18.2117 36.6238 18.3705 36.5694 18.497C35.523 20.8806 34.4719 23.262 33.4232 25.6433C33.3736 25.7538 33.3311 25.8803 33.1775 25.8711C33.0263 25.8642 32.9909 25.733 32.9437 25.6249C32.039 23.5335 31.132 21.4397 30.2297 19.3483C30.0194 18.8582 29.7596 18.4211 29.1715 18.2876C29.0841 18.2669 29.0132 18.214 29.0321 18.1105C29.0486 18.0207 29.1289 18.0023 29.2069 18C29.3203 17.9954 29.4336 18 29.547 18L29.5447 17.9977Z" fill="#B0B7BE"/>
<path d="M37.5663 21.5778C37.5663 20.5677 37.5663 19.5554 37.5663 18.5453C37.5663 18.145 37.5852 18.1289 37.9843 18.1013C38.0505 18.0967 38.1143 18.0829 38.1804 18.0737C38.5607 18.0253 38.7048 18.1496 38.6977 18.5246C38.6575 20.455 38.6741 22.3831 38.6882 24.3135C38.6882 24.4952 38.7048 24.6816 38.7355 24.8611C38.8111 25.2982 39.0024 25.4593 39.4488 25.5076C39.5575 25.5191 39.7323 25.4685 39.7157 25.6594C39.7016 25.8159 39.5504 25.7814 39.4441 25.7814C39.0945 25.7814 38.7449 25.786 38.3977 25.763C37.9064 25.7285 37.6867 25.5191 37.6182 25.0474C37.5899 24.8473 37.571 24.6448 37.571 24.4446C37.5663 23.4898 37.571 22.5326 37.571 21.5778H37.5663Z" fill="#B0B7BE"/>
<path d="M40.422 0.0100148C40.8826 0.0100148 41.244 0.36204 41.2416 0.806097C41.2393 1.28697 40.8873 1.63439 40.4102 1.63209C39.9259 1.62979 39.5716 1.27546 39.5693 0.810698C39.5693 0.398852 39.9874 -0.0751153 40.422 0.0100148Z" fill="#CCCCCC"/>
<path d="M32.3248 0.0100383C32.7264 0.0100383 33.1256 0.41038 33.1232 0.810721C33.1232 1.26628 32.7335 1.65282 32.2823 1.64592C31.8217 1.63901 31.4391 1.25478 31.4367 0.813022C31.4367 0.463298 31.8052 -0.0681893 32.3248 0.0123391V0.0100383Z" fill="#CCCCCC"/>
<path d="M42.4628 0.0100098C42.9022 0.0100098 43.2659 0.355132 43.2754 0.783083C43.2848 1.27546 42.9305 1.63438 42.4415 1.63208C41.9668 1.62748 41.6125 1.27546 41.6101 0.803791C41.6101 0.348229 41.9715 0.0100098 42.4628 0.0100098Z" fill="#CCCCCC"/>
<path d="M41.2416 12.6944C41.2416 13.1569 40.892 13.502 40.4196 13.5043C39.9614 13.5043 39.5551 13.1362 39.5575 12.7197C39.5575 12.2503 39.9472 11.873 40.4244 11.8776C40.8873 11.8822 41.2416 12.2388 41.2416 12.6944Z" fill="#B0B7BE"/>
<path d="M27.0149 12.7059C27.0078 13.1683 26.6535 13.5065 26.1811 13.5019C25.704 13.4996 25.3284 13.1292 25.3379 12.6759C25.3473 12.2227 25.7418 11.8615 26.2095 11.8753C26.6724 11.8891 27.0196 12.248 27.0126 12.7059H27.0149Z" fill="#B0B7BE"/>
<path d="M30.2651 3.61308C29.7927 3.61998 29.4124 3.26105 29.4077 2.80319C29.403 2.35913 29.7644 2.00021 30.2297 1.991C30.7186 1.9795 31.0777 2.32232 31.0753 2.79629C31.0753 3.26105 30.7305 3.60848 30.2628 3.61308H30.2651Z" fill="#CCCCCC"/>
<path d="M41.2416 14.6523C41.244 15.1217 40.8849 15.4875 40.4196 15.4898C39.9448 15.4898 39.5527 15.1079 39.5574 14.65C39.5622 14.2267 39.9543 13.8655 40.4102 13.8632C40.8802 13.8609 41.2369 14.1991 41.2416 14.6523Z" fill="#B0B7BE"/>
<path d="M37.1907 10.7271C37.1907 11.162 36.8175 11.5117 36.3451 11.5163C35.8609 11.5209 35.5278 11.2011 35.5207 10.7248C35.5136 10.2647 35.8916 9.88504 36.3498 9.89194C36.8057 9.89884 37.1883 10.2785 37.1883 10.7294L37.1907 10.7271Z" fill="#B0B7BE"/>
<path d="M27.0244 2.78244C27.0291 3.2426 26.6583 3.61303 26.1929 3.61303C25.73 3.61303 25.3355 3.2426 25.3308 2.79855C25.3261 2.36829 25.704 1.99786 26.1599 1.98636C26.6394 1.97486 27.0197 2.32458 27.0244 2.78014V2.78244Z" fill="#CCCCCC"/>
<path d="M33.1161 8.73474C33.1208 9.1903 32.7689 9.52852 32.2894 9.53082C31.8051 9.53082 31.4485 9.20181 31.4461 8.75085C31.4438 8.29528 31.8193 7.91105 32.2752 7.90414C32.7264 7.89724 33.1137 8.27918 33.1185 8.73474H33.1161Z" fill="#B0B7BE"/>
<path d="M33.487 14.6593C33.4941 14.1968 33.8484 13.8586 34.3161 13.8632C34.7861 13.8678 35.1499 14.2152 35.1522 14.6616C35.1522 15.1333 34.7649 15.5037 34.2854 15.4899C33.8248 15.4761 33.4799 15.1172 33.487 14.6593Z" fill="#B0B7BE"/>
<path d="M37.1907 12.6852C37.186 13.1522 36.8222 13.502 36.3427 13.502C35.8727 13.502 35.5231 13.1591 35.5231 12.699C35.5231 12.2342 35.8963 11.8661 36.3592 11.8753C36.8151 11.8845 37.1954 12.2526 37.1907 12.6852Z" fill="#B0B7BE"/>
<path d="M28.2195 5.58258C27.74 5.58258 27.3645 5.22595 27.3716 4.77039C27.3786 4.31943 27.766 3.949 28.2266 3.95591C28.6896 3.96051 29.0628 4.33784 29.0533 4.7934C29.0439 5.24436 28.6872 5.58258 28.2195 5.58258Z" fill="#CCCCCC"/>
<path d="M36.3592 13.8632C36.8246 13.8724 37.1954 14.2314 37.1907 14.6662C37.186 15.1195 36.8033 15.4899 36.3404 15.4899C35.8679 15.4899 35.5136 15.1218 35.5231 14.6501C35.5325 14.1853 35.8845 13.854 36.3569 13.8632H36.3592Z" fill="#B0B7BE"/>
<path d="M34.3066 1.98869C34.779 1.98409 35.1357 2.31771 35.1475 2.77787C35.1616 3.24494 34.8002 3.60847 34.3207 3.61537C33.8483 3.61997 33.4751 3.25644 33.4775 2.79398C33.4799 2.33612 33.8318 1.9956 34.3042 1.991L34.3066 1.98869Z" fill="#CCCCCC"/>
<path d="M39.2103 2.78936C39.2103 3.25642 38.8512 3.61535 38.3788 3.61305C37.9111 3.61305 37.5379 3.24722 37.5403 2.78936C37.5403 2.3407 37.8993 1.99328 38.3623 1.98637C38.8465 1.98177 39.2103 2.32459 39.2103 2.78706V2.78936Z" fill="#CCCCCC"/>
<path d="M41.2416 2.78244C41.2464 3.24491 40.8755 3.61994 40.4126 3.61764C39.9614 3.61764 39.5551 3.2219 39.5551 2.78935C39.5551 2.366 39.9472 1.99787 40.4055 1.99327C40.8732 1.98636 41.2369 2.33149 41.2416 2.78475V2.78244Z" fill="#B0B7BE"/>
<path d="M42.4581 1.99106C42.9423 1.99797 43.2706 2.32698 43.2636 2.80095C43.2565 3.26801 42.9093 3.61774 42.451 3.61544C41.988 3.61544 41.5889 3.2312 41.5936 2.79635C41.6007 2.34539 41.988 1.98416 42.4581 1.99106Z" fill="#B0B7BE"/>
<path d="M27.0149 14.6638C27.0149 15.1309 26.6417 15.499 26.1764 15.4898C25.711 15.4806 25.3331 15.101 25.3426 14.65C25.3496 14.2083 25.7228 13.8632 26.1905 13.8632C26.6606 13.8632 27.0149 14.206 27.0149 14.6638Z" fill="#B0B7BE"/>
<path d="M27.015 10.718C27.0126 11.185 26.6701 11.5164 26.1906 11.5164C25.7229 11.5164 25.3332 11.162 25.3284 10.7364C25.3261 10.3061 25.7347 9.89429 26.1717 9.88969C26.6323 9.88509 27.0173 10.2647 27.0126 10.718H27.015Z" fill="#B0B7BE"/>
<path d="M32.2776 3.60153C31.7981 3.60153 31.4414 3.24721 31.4462 2.78015C31.4532 2.32919 31.8146 1.99097 32.2847 1.99097C32.7476 1.99097 33.1161 2.34299 33.1161 2.78935C33.1161 3.25871 32.7618 3.60384 32.2752 3.60153H32.2776Z" fill="#B0B7BE"/>
<path d="M27.0173 8.75306C27.015 9.21092 26.6583 9.53764 26.1764 9.52844C25.7064 9.51923 25.3237 9.15801 25.3332 8.73466C25.345 8.2975 25.7536 7.90176 26.193 7.90406C26.6418 7.90406 27.0221 8.2952 27.0197 8.75076L27.0173 8.75306Z" fill="#B0B7BE"/>
<path d="M31.0753 8.73239C31.0824 9.18335 30.7446 9.52157 30.284 9.52617C29.7785 9.53077 29.4077 9.20636 29.4029 8.7508C29.3982 8.30674 29.7856 7.911 30.2344 7.9041C30.6879 7.89489 31.0658 8.26763 31.0753 8.73239Z" fill="#B0B7BE"/>
<path d="M30.2557 5.57797C29.7644 5.57797 29.4053 5.23975 29.4053 4.77269C29.4053 4.32173 29.7856 3.97201 30.2675 3.97661C30.7494 3.98121 31.0777 4.31023 31.0753 4.78189C31.073 5.24896 30.7328 5.57567 30.2533 5.57797H30.2557Z" fill="#B0B7BE"/>
<path d="M37.1907 8.75304C37.186 9.1925 36.8175 9.52842 36.338 9.52842C35.8538 9.52842 35.5231 9.204 35.5231 8.73004C35.5231 8.28138 35.8939 7.89944 36.3285 7.90174C36.7915 7.90404 37.1954 8.30439 37.1907 8.75304Z" fill="#B0B7BE"/>
<path d="M41.2463 8.74391C41.2463 9.20177 40.8968 9.53309 40.4125 9.53079C39.9449 9.52848 39.5551 9.17186 39.5575 8.74621C39.5575 8.32056 39.9756 7.91101 40.4102 7.90641C40.8566 7.90181 41.2463 8.29065 41.2463 8.74391Z" fill="#B0B7BE"/>
<path d="M42.4628 13.502C41.988 13.5043 41.6006 13.1476 41.5935 12.7013C41.5864 12.2618 41.9785 11.8822 42.4415 11.8753C42.8903 11.8707 43.2517 12.2135 43.2588 12.653C43.2659 13.1522 42.9422 13.4974 42.4604 13.502H42.4628Z" fill="#B0B7BE"/>
<path d="M32.2965 15.4853C31.8193 15.4853 31.4508 15.131 31.4461 14.6708C31.4438 14.213 31.8193 13.8564 32.2988 13.8633C32.7665 13.8702 33.1232 14.2245 33.1161 14.6731C33.109 15.1333 32.7547 15.483 32.2965 15.483V15.4853Z" fill="#B0B7BE"/>
<path d="M35.1357 12.7059C35.131 13.1798 34.7743 13.5158 34.2877 13.502C33.82 13.4905 33.4799 13.1384 33.487 12.6783C33.4941 12.225 33.8578 11.8707 34.3137 11.8753C34.7908 11.8799 35.1404 12.2319 35.1357 12.7036V12.7059Z" fill="#B0B7BE"/>
<path d="M29.0345 12.6691C29.0345 13.1706 28.7038 13.5089 28.2219 13.502C27.7495 13.4951 27.3621 13.1269 27.3669 12.6852C27.3716 12.2457 27.7708 11.8707 28.2314 11.8753C28.6802 11.8799 29.0345 12.2296 29.0345 12.6691Z" fill="#B0B7BE"/>
<path d="M31.073 12.6622C31.0777 13.15 30.7305 13.5066 30.2604 13.5043C29.7833 13.502 29.4007 13.1385 29.4054 12.6921C29.4101 12.2342 29.788 11.873 30.2581 11.8776C30.7163 11.8822 31.0683 12.2227 31.0706 12.6622H31.073Z" fill="#B0B7BE"/>
<path d="M39.2056 12.6829C39.2103 13.1545 38.8584 13.5043 38.3741 13.502C37.8946 13.502 37.5639 13.1729 37.5616 12.699C37.5616 12.2273 37.8899 11.8868 38.36 11.8753C38.8395 11.8638 39.1985 12.2089 39.2056 12.6829Z" fill="#B0B7BE"/>
<path d="M36.3427 3.96742C36.8246 3.96742 37.1954 4.32635 37.1884 4.78421C37.1813 5.23517 36.8222 5.58029 36.3545 5.58259C35.868 5.58259 35.5136 5.23747 35.5207 4.7658C35.5278 4.30104 35.8727 3.96512 36.3451 3.96742H36.3427Z" fill="#CCCCCC"/>
<path d="M41.2416 10.7041C41.2463 11.1666 40.9038 11.5071 40.429 11.514C39.9637 11.5209 39.5669 11.1712 39.5574 10.7479C39.5504 10.313 39.9448 9.90116 40.3865 9.88965C40.8424 9.87585 41.2369 10.2509 41.2416 10.7041Z" fill="#B0B7BE"/>
<path d="M35.15 10.7134C35.1594 11.1574 34.8051 11.5026 34.3256 11.5141C33.8532 11.5256 33.4965 11.1943 33.4847 10.7341C33.4729 10.2739 33.8367 9.8989 34.302 9.88969C34.7555 9.88049 35.1405 10.2555 35.1476 10.7134H35.15Z" fill="#B0B7BE"/>
<path d="M24.9789 12.7036C24.9765 13.1614 24.6293 13.4996 24.1569 13.5042C23.6679 13.5088 23.3278 13.1683 23.3349 12.6828C23.342 12.2135 23.6845 11.8776 24.1522 11.8776C24.6317 11.8776 24.9812 12.2273 24.9789 12.7036Z" fill="#B0B7BE"/>
<path d="M34.3043 7.56121C33.82 7.56121 33.4823 7.21839 33.487 6.73292C33.4917 6.26356 33.8248 5.95525 34.3232 5.96215C34.8121 5.96905 35.1475 6.28656 35.1522 6.75133C35.157 7.21149 34.7909 7.56121 34.3066 7.55891L34.3043 7.56121Z" fill="#B0B7BE"/>
<path d="M32.2682 7.56127C31.7981 7.56127 31.4509 7.22075 31.4462 6.76059C31.4414 6.28892 31.7934 5.9576 32.2941 5.96221C32.7854 5.96681 33.1185 6.28892 33.1161 6.75599C33.1161 7.22765 32.7642 7.56127 32.2682 7.56127Z" fill="#B0B7BE"/>
<path d="M32.28 5.57561C31.8028 5.57561 31.4509 5.24199 31.4462 4.78183C31.4414 4.32166 31.7863 3.98344 32.2681 3.97654C32.7571 3.96964 33.1232 4.31936 33.1161 4.78643C33.109 5.25119 32.7665 5.57331 32.28 5.57331V5.57561Z" fill="#B0B7BE"/>
<path d="M28.222 13.8632C28.6826 13.8609 29.0274 14.1899 29.0345 14.6408C29.0416 15.147 28.7062 15.4875 28.2031 15.4852C27.7566 15.4852 27.3693 15.1125 27.3693 14.68C27.3693 14.2336 27.7519 13.8678 28.2243 13.8655L28.222 13.8632Z" fill="#B0B7BE"/>
<path d="M42.4227 15.4852C41.9763 15.4829 41.5912 15.1033 41.5936 14.673C41.5983 14.2244 41.9786 13.8632 42.4534 13.8632C42.9258 13.8632 43.2707 14.2106 43.2589 14.673C43.247 15.1677 42.9164 15.4875 42.4227 15.4852Z" fill="#B0B7BE"/>
<path d="M34.2948 9.52616C33.8224 9.53077 33.4917 9.21556 33.4847 8.75539C33.4776 8.29293 33.8437 7.9133 34.3019 7.90409C34.7484 7.89489 35.1381 8.27682 35.1476 8.73238C35.157 9.19485 34.8027 9.52386 34.2925 9.52616H34.2948Z" fill="#B0B7BE"/>
<path d="M32.2728 9.88969C32.724 9.88509 33.1043 10.2463 33.1114 10.6881C33.1185 11.1805 32.776 11.5118 32.2587 11.5141C31.8099 11.5141 31.4485 11.1666 31.4461 10.7318C31.4438 10.2716 31.817 9.89429 32.2728 9.88969Z" fill="#B0B7BE"/>
<path d="M28.2266 9.88969C28.6872 9.89659 29.0415 10.2693 29.0368 10.741C29.0321 11.1919 28.6896 11.5187 28.2266 11.5164C27.7495 11.5164 27.3668 11.1528 27.3668 10.7088C27.3668 10.2762 27.7802 9.88509 28.2266 9.88969Z" fill="#B0B7BE"/>
<path d="M43.2612 8.76455C43.2518 9.23161 42.9282 9.53532 42.4487 9.52381C41.955 9.51461 41.5865 9.16949 41.5913 8.72083C41.596 8.29748 42.0164 7.89944 42.4581 7.90174C42.9046 7.90404 43.2683 8.29748 43.2589 8.76225L43.2612 8.76455Z" fill="#B0B7BE"/>
<path d="M30.2368 11.5118C29.7408 11.4888 29.3865 11.1368 29.4054 10.6835C29.4243 10.2395 29.8353 9.86904 30.2864 9.88974C30.7447 9.91045 31.0966 10.3016 31.073 10.7641C31.0517 11.2127 30.6927 11.5325 30.2345 11.5118H30.2368Z" fill="#B0B7BE"/>
<path d="M39.2056 10.7272C39.2056 11.1896 38.8584 11.5187 38.3741 11.5164C37.8852 11.5164 37.5616 11.1942 37.5616 10.7134C37.5616 10.2578 37.923 9.89199 38.3741 9.88969C38.8347 9.88509 39.2056 10.2601 39.2056 10.7272Z" fill="#B0B7BE"/>
<path d="M42.4486 9.88967C42.9116 9.89427 43.2588 10.2578 43.2588 10.7364C43.2588 11.1873 42.9187 11.5163 42.4534 11.514C41.9739 11.514 41.5912 11.1551 41.5912 10.7088C41.5912 10.2739 41.9999 9.88277 42.4463 9.88737L42.4486 9.88967Z" fill="#B0B7BE"/>
<path d="M24.9788 10.741C24.9741 11.1989 24.6175 11.5256 24.1332 11.5164C23.6443 11.5072 23.323 11.1781 23.3348 10.6996C23.3443 10.2417 23.7104 9.88509 24.1616 9.88969C24.6245 9.89429 24.9836 10.2693 24.9788 10.741Z" fill="#B0B7BE"/>
<path d="M30.2604 15.4714C29.7762 15.4737 29.403 15.1286 29.4077 14.673C29.4101 14.2129 29.7762 13.8655 30.2604 13.8632C30.7139 13.8632 31.0682 14.2014 31.073 14.6431C31.08 15.1355 30.7541 15.4668 30.2604 15.4691V15.4714Z" fill="#B0B7BE"/>
<path d="M24.9765 14.6524C24.9812 15.1356 24.6434 15.483 24.1616 15.4899C23.6915 15.4945 23.3372 15.1402 23.3349 14.6639C23.3325 14.1991 23.6703 13.8678 24.1498 13.8632C24.6245 13.8586 24.9718 14.1899 24.9765 14.6547V14.6524Z" fill="#B0B7BE"/>
<path d="M36.338 7.56585C35.8632 7.56585 35.5301 7.23454 35.5254 6.75597C35.5207 6.2774 35.8443 5.96219 36.3427 5.96449C36.8269 5.96449 37.1859 6.29811 37.1907 6.74677C37.1954 7.19542 36.8104 7.56355 36.338 7.56585Z" fill="#B0B7BE"/>
<path d="M42.4392 5.57797C41.9786 5.57337 41.596 5.21444 41.5936 4.78189C41.5912 4.33553 41.9786 3.972 42.4558 3.97661C42.94 3.98121 43.2707 4.31252 43.2636 4.78419C43.2565 5.25586 42.9164 5.58487 42.4392 5.57797Z" fill="#B0B7BE"/>
<path d="M41.2417 4.77499C41.2417 5.23055 40.8897 5.57567 40.4244 5.57797C39.9496 5.57797 39.5551 5.21674 39.5551 4.77729C39.5551 4.33553 39.9496 3.972 40.422 3.97661C40.8992 3.98351 41.2417 4.31713 41.2417 4.77499Z" fill="#B0B7BE"/>
<path d="M39.2055 14.6523C39.2102 15.1332 38.8606 15.4898 38.3835 15.4898C37.9229 15.4898 37.5662 15.1378 37.5615 14.6776C37.5568 14.2037 37.8875 13.87 38.3693 13.8631C38.8418 13.8562 39.2031 14.1968 39.2079 14.6523H39.2055Z" fill="#B0B7BE"/>
<path d="M28.2149 9.52619C27.726 9.51239 27.3504 9.14886 27.3669 8.7071C27.3835 8.28145 27.8228 7.88571 28.2574 7.90642C28.6991 7.92713 29.0463 8.30906 29.0345 8.76692C29.0227 9.23629 28.6968 9.54 28.2149 9.52389V9.52619Z" fill="#B0B7BE"/>
<path d="M27.0173 6.75824C27.0126 7.223 26.6441 7.57272 26.1693 7.56352C25.7206 7.55432 25.3308 7.18389 25.3308 6.76054C25.3308 6.31418 25.7158 5.95755 26.1953 5.96445C26.6725 5.97136 27.022 6.30728 27.0173 6.76054V6.75824Z" fill="#B0B7BE"/>
<path d="M42.4558 7.56362C41.9833 7.56362 41.5983 7.1978 41.5936 6.74914C41.5912 6.30508 41.981 5.95536 42.4699 5.96226C42.9636 5.96916 43.2659 6.28207 43.2589 6.77905C43.2541 7.23461 42.914 7.56593 42.4534 7.56362H42.4558Z" fill="#B0B7BE"/>
<path d="M41.2416 6.76745C41.2369 7.22071 40.8755 7.56584 40.4078 7.56353C39.9543 7.56123 39.5598 7.1885 39.5575 6.76515C39.5575 6.31649 39.9401 5.95987 40.4243 5.96217C40.8968 5.96217 41.2463 6.30729 41.2416 6.76745Z" fill="#B0B7BE"/>
<path d="M30.2651 7.56352C29.788 7.56352 29.403 7.2 29.4077 6.75134C29.4101 6.30268 29.7715 5.96446 30.2486 5.96216C30.7541 5.96216 31.0824 6.28427 31.0753 6.77665C31.0682 7.2253 30.7186 7.56352 30.2651 7.56122V7.56352Z" fill="#B0B7BE"/>
<path d="M34.3231 5.57564C33.8366 5.57794 33.4941 5.25582 33.487 4.79106C33.4799 4.31019 33.8271 3.97427 34.3231 3.97657C34.8003 3.98118 35.1499 4.3194 35.1522 4.77726C35.1522 5.23972 34.8074 5.57104 34.3231 5.57334V5.57564Z" fill="#B0B7BE"/>
<path d="M28.2385 7.56585C27.7732 7.57045 27.3764 7.20233 27.3669 6.76057C27.3575 6.31651 27.7449 5.96219 28.2338 5.96449C28.7275 5.96449 29.0345 6.2774 29.0322 6.77207C29.0322 7.22993 28.6991 7.56355 28.2385 7.56815V7.56585Z" fill="#B0B7BE"/>
<path d="M24.1545 3.96741C24.6387 3.96741 24.9883 4.31483 24.9836 4.7911C24.9788 5.24896 24.6245 5.58488 24.1497 5.58258C23.6702 5.58028 23.3254 5.24896 23.323 4.7888C23.3183 4.31253 23.6702 3.96741 24.1545 3.96741Z" fill="#CCCCCC"/>
<path d="M27.0197 4.76574C27.0197 5.2259 26.6701 5.57333 26.2048 5.57793C25.7135 5.58253 25.3544 5.24201 25.3591 4.77264C25.3639 4.29868 25.6969 3.97656 26.1835 3.97656C26.6606 3.97656 27.022 4.31708 27.0197 4.76574Z" fill="#B0B7BE"/>
<path d="M24.9789 8.73934C24.9836 9.1903 24.6506 9.51702 24.1781 9.52622C23.6679 9.53542 23.342 9.24092 23.3349 8.76465C23.3278 8.28838 23.6797 7.91335 24.1403 7.90415C24.5939 7.89724 24.9742 8.27688 24.9789 8.73934Z" fill="#B0B7BE"/>
<path d="M37.5616 8.74845C37.5616 8.27448 37.923 7.90405 38.3836 7.90405C38.8277 7.90405 39.2103 8.30209 39.2056 8.75535C39.2009 9.20631 38.8607 9.52613 38.3883 9.52613C37.8805 9.52613 37.5616 9.22472 37.5616 8.74845Z" fill="#B0B7BE"/>
<path d="M39.2055 4.77734C39.2032 5.26051 38.8607 5.58492 38.3623 5.57802C37.8946 5.57112 37.5544 5.226 37.5615 4.76353C37.5662 4.28726 37.9016 3.96975 38.3859 3.97895C38.8654 3.98816 39.2102 4.32408 39.2055 4.77964V4.77734Z" fill="#B0B7BE"/>
<path d="M33.0972 12.6852C33.0995 13.1798 32.7972 13.4812 32.2941 13.4835C31.7933 13.4835 31.4485 13.1568 31.4461 12.6805C31.4461 12.2365 31.8169 11.8799 32.2799 11.8776C32.7382 11.8776 33.0925 12.2273 33.0948 12.6875L33.0972 12.6852Z" fill="#B0B7BE"/>
<path d="M38.3859 5.96453C38.8654 5.97143 39.2079 6.30505 39.2055 6.76291C39.2055 7.22768 38.8394 7.5728 38.3552 7.5659C37.8946 7.56129 37.5568 7.20927 37.5592 6.7422C37.5615 6.26364 37.8851 5.95993 38.3835 5.96453H38.3859Z" fill="#B0B7BE"/>
<path d="M24.9789 6.74214C24.9836 7.2138 24.6316 7.56583 24.1545 7.56583C23.6868 7.56583 23.3467 7.23221 23.3372 6.76514C23.3278 6.29118 23.6514 5.97136 24.1427 5.96446C24.6175 5.95756 24.9765 6.29118 24.9812 6.74214H24.9789Z" fill="#B0B7BE"/>
</svg>
